<?xml version="1.0" encoding="utf-8"?>
<!-- Generator: Adobe Illustrator 26.4.1, SVG Export Plug-In . SVG Version: 6.00 Build 0)  -->
<svg version="1.1" id="Layer_1" xmlns="http://www.w3.org/2000/svg" xmlns:xlink="http://www.w3.org/1999/xlink" x="0px" y="0px"
	 viewBox="0 0 648 648" style="enable-background:new 0 0 648 648;" xml:space="preserve">
<style type="text/css">
	.st0{fill:#993399;}
	.st1{fill:#231F20;}
</style>
<g>
	<path class="st0" d="M146.4,45.5c60.5-0.1,121-0.1,181.6-0.1c14.4,0.1,28.8-0.4,43.1,0.8c33.6,2.4,66.5,12.4,96,28.7
		c37.3,20,68.4,50.8,90,87c20.1,33.6,31.1,72.2,34.2,111.1c1.9,26.4-0.3,53.2-7.6,78.8c-4.3,14.5-9.3,29-16.5,42.4
		c-15.6,30.4-36.2,58.4-62.3,80.5c-24.9,20.8-54.1,36.6-85.3,45.5c-18.1,5.1-36.8,7.8-55.5,8.8c-13.7,1.1-27.4,0.2-41.1,0.8
		c-11.3,0.7-22.7-0.1-34-0.7c-16.8-0.6-33.2-9.4-43-23.1c-9.5-13.1-13.2-30.1-10.9-46.1c1.9-13.4,8.5-26.1,18.3-35.5
		c11-10.6,26.3-16.2,41.5-16c24.3,0,48.7,0.8,73-1.2c20.2-2.3,39.9-9.7,56-22.3c27.4-20.9,44.9-53.8,48.1-88
		c2.1-23.8-3-48.3-15.2-68.9c-9.8-16.6-22.6-31.6-38.8-42.3c-15.1-10.3-32.9-16-50.9-18.3c-10.7-1.2-21.5-0.8-32.2-0.9
		c-71,0-142,0-213,0c-8.4,0-17.1,0.1-25.1-2.9c-19.5-6-35.4-22.9-40-42.8c-3.7-15.5-1.9-32.8,6.6-46.5C74,56.9,94.2,44.8,115,45.6
		C125.5,45.5,135.9,45.7,146.4,45.5z"/>
</g>
<g>
	<path class="st1" d="M160.2,216.3c7.6-0.7,15.2-0.1,22.8-0.4c50.7-0.1,101.4-0.1,152,0.1c15.4,0.1,31.1,6,41.6,17.5
		c11.9,12,17.6,29.7,15.2,46.4c-1.6,13-8.2,25.3-17.9,34.2c-10.6,9.3-24.7,14.8-38.9,14.5c-30.7-0.2-61.4-0.8-92-1.3
		c-9.5,0.1-19.1-1.2-28.6,0.5c-17.4,3.1-33.3,14.8-40.8,30.9c-3.5,7.2-5.6,15.2-5.5,23.3c-0.2,51-0.1,102.1-0.1,153.1
		c0.1,8.2,0.1,16.5-0.7,24.8c-2.3,17.9-14.2,34.3-30.5,42c-10.8,5.5-23.3,7.3-35.2,5.4c-13.2-2.4-25.5-9.3-33.9-19.8
		c-7.8-9.6-12.6-21.9-12.5-34.4c0-69,0-138.1,0-207.1c0.1-12.1-0.4-24.3,1.7-36.2c3.2-18.6,10.4-36.7,22.5-51.3
		C98.9,234,129.2,218.9,160.2,216.3z"/>
</g>
</svg>
