<?xml version="1.0" encoding="utf-8"?>
<!-- Generator: Adobe Illustrator 26.4.1, SVG Export Plug-In . SVG Version: 6.00 Build 0)  -->
<svg version="1.1" id="Layer_1" xmlns="http://www.w3.org/2000/svg" xmlns:xlink="http://www.w3.org/1999/xlink" x="0px" y="0px"
	 viewBox="0 0 838.3 270" style="enable-background:new 0 0 838.3 270;" xml:space="preserve">
<style type="text/css">
	.st0{fill:#231F20;}
	.st1{fill:#993399;}
</style>
<g>
	<path class="st0" d="M69.2,89.1c23.5-0.1,47-0.1,70.5,0c5.4,0.1,10.8,2,15,5.5c2.6,2.3,4.8,5.1,6.3,8.3c1.5,3.6,2.4,7.6,1.9,11.6
		c-0.4,5.8-3.3,11.4-7.5,15.3c-4.2,3.7-9.7,5.9-15.3,6c-13.4-0.1-26.9-0.3-40.3-0.6c-3.6,0-7.3-0.4-10.8,0.3
		c-5.8,1.2-11.2,4.6-14.6,9.5c-1.9,2.7-3.2,5.9-3.8,9.1c-0.4,2.5-0.4,5.1-0.4,7.6c0,20.2,0,40.3,0,60.5c0,4.6,0.3,9.5-1.4,13.9
		c-2,5.5-6.2,10.3-11.5,12.8c-5.8,2.9-12.9,3.5-19,1c-8.7-3.2-14.9-12.1-14.8-21.4c0-28.6,0-57.2,0-85.8c0-5.1-0.1-10.3,0.9-15.3
		c1.4-7.9,4.7-15.6,10.1-21.6c6.5-7.8,15.7-12.9,25.5-15.3C62.9,89.6,66,89.1,69.2,89.1z"/>
</g>
<g>
	<path class="st1" d="M47.3,18.5c32.3-0.1,64.6-0.1,96.9-0.1c8.5-0.1,17.1,0.8,25.4,2.7c6.6,1.7,13.1,3.8,19.2,6.9
		c3.4,1.6,6.7,3.5,10,5.4c2.7,1.9,5.6,3.6,8.1,5.7c1.7,1.4,3.5,2.7,5.1,4.3c2.1,2,4.3,3.8,6.2,6c8.4,8.9,15.1,19.4,19.7,30.7
		c1.2,3.4,2.6,6.8,3.5,10.4c3.8,13.3,5.2,27.3,3.6,41.1c-0.8,6.4-2.2,12.8-4.4,18.9c-1.4,4.2-3,8.4-5.1,12.3
		c-4.9,9.6-11,18.6-18.4,26.4c-7.2,7.6-15.7,13.9-25,18.8c-9.9,5.3-20.9,8.6-32,9.9c-3.9,0.6-7.9,0.7-11.9,1
		c-4.4,0.1-8.7,0-13.1,0.1c-5.5,0.3-10.9,0-16.4-0.4c-6.1-0.7-12-4-15.7-9c-4.3-5.6-5.9-12.9-4.8-19.8c1.3-8.6,7.3-16.5,15.6-19.4
		c2.7-1,5.5-1.5,8.3-1.6c9.2,0,18.3,0.3,27.5-0.3c7.2-0.2,14.4-2.2,20.8-5.6c8.8-4.8,15.8-12.5,20.4-21.4c2.3-5,4.3-10.2,5.1-15.7
		c1.3-8,0.5-16.3-2.2-24c-1.9-5-4.5-9.7-7.8-13.9c-3.7-5-8.3-9.2-13.6-12.4c-5.1-3.2-10.8-5.1-16.7-6.1c-4.1-0.8-8.3-0.8-12.5-0.8
		c-30.5,0-60.9,0-91.4,0c-3.4,0-6.9,0.1-10.2-1c-2-0.7-4-1.4-5.8-2.5c-4.5-2.9-8.3-7.1-10.2-12.2c-2.1-5.4-2.3-11.6-0.7-17.2
		c1.7-5.3,5.1-9.9,9.7-13C38.1,20.2,42.6,18.4,47.3,18.5z"/>
</g>
<g>
	<path d="M310.1,212.4c-8.6,0-16.1-1.6-22.5-4.7c-6.4-3.1-11.5-7.4-15.2-12.9c-3.7-5.4-5.5-11.7-5.5-18.7c0-8.3,2.1-14.8,6.4-19.6
		c4.3-4.8,11.2-8.2,20.8-10.3c9.6-2.1,22.3-3.2,38.3-3.2h12.2v17.9h-12c-8,0-14.3,0.4-19,1.3c-4.7,0.8-8.1,2.3-10.2,4.4
		c-2.1,2.1-3.2,4.8-3.2,8.2c0,4.1,1.5,7.6,4.5,10.3c3,2.8,7.2,4.1,12.8,4.1c4.4,0,8.4-1,12-3c3.5-2,6.3-4.8,8.3-8.3
		c2-3.5,3-7.7,3-12.6V139c0-6.7-1.5-11.5-4.6-14.4c-3.1-2.8-8.4-4.3-15.9-4.3c-4,0-8.4,0.5-13.2,1.4c-4.8,0.9-10.2,2.6-16,5.1
		c-3.5,1.4-6.6,1.7-9.1,0.9c-2.5-0.8-4.5-2.3-5.9-4.5c-1.4-2.2-2.1-4.7-2.1-7.5s0.8-5.4,2.3-7.8c1.5-2.5,4.1-4.3,7.8-5.5
		c7.1-2.8,13.8-4.7,20.1-5.9c6.4-1.2,12.2-1.7,17.4-1.7c11.8,0,21.6,1.7,29.3,5.2c7.7,3.4,13.5,8.8,17.2,16
		c3.8,7.2,5.6,16.3,5.6,27.4v51.1c0,5.7-1.4,10-4.3,13c-2.8,3-6.8,4.5-11.8,4.5c-5.2,0-9.2-1.5-12.1-4.5c-2.8-3-4.3-7.3-4.3-13v-8.5
		l1.6,1.6c-0.9,5.1-2.9,9.4-5.9,13.1s-6.7,6.6-11.3,8.6C321.3,211.3,316.1,212.4,310.1,212.4z"/>
	<path d="M417,253.3c-5.4,0-9.6-1.5-12.7-4.4c-3.1-2.9-4.6-7.3-4.6-13.1V112.8c0-5.7,1.5-10,4.5-13s7.2-4.5,12.8-4.5
		c5.4,0,9.5,1.5,12.5,4.5c3,3,4.5,7.3,4.5,13v15.6l-2.5-9c2.3-7.5,6.9-13.5,13.9-17.9c7-4.4,15-6.7,24-6.7c9.8,0,18.5,2.4,26,7.1
		c7.5,4.8,13.3,11.5,17.4,20.2c4.1,8.7,6.1,19.2,6.1,31.3c0,12.1-2.1,22.6-6.2,31.5c-4.1,8.9-9.9,15.7-17.2,20.4c-7.4,4.7-16,7-26,7
		c-8.9,0-16.8-2.1-23.7-6.4c-6.9-4.3-11.5-9.9-13.8-16.8h2.5v46.7c0,5.8-1.5,10.2-4.5,13.1C427.1,251.8,422.7,253.3,417,253.3z
		 M459.1,186.6c4.9,0,9.2-1.2,13-3.6c3.8-2.4,6.7-6,8.7-10.9c2.1-4.9,3.1-11.1,3.1-18.6c0-11.2-2.3-19.4-6.9-24.7
		c-4.6-5.3-10.6-7.9-17.9-7.9c-4.9,0-9.2,1.1-13,3.4c-3.8,2.3-6.7,5.9-8.7,10.8c-2.1,4.9-3.1,11-3.1,18.4c0,11.3,2.3,19.7,6.9,25.1
		C445.8,183.9,451.8,186.6,459.1,186.6z"/>
	<path d="M578.5,212.4c-8.6,0-16.1-1.6-22.5-4.7c-6.4-3.1-11.5-7.4-15.2-12.9c-3.7-5.4-5.5-11.7-5.5-18.7c0-8.3,2.1-14.8,6.4-19.6
		c4.3-4.8,11.2-8.2,20.8-10.3c9.6-2.1,22.3-3.2,38.3-3.2H613v17.9h-12c-8,0-14.3,0.4-19,1.3c-4.7,0.8-8.1,2.3-10.2,4.4
		c-2.1,2.1-3.2,4.8-3.2,8.2c0,4.1,1.5,7.6,4.5,10.3c3,2.8,7.2,4.1,12.8,4.1c4.4,0,8.4-1,12-3c3.5-2,6.3-4.8,8.3-8.3
		c2-3.5,3-7.7,3-12.6V139c0-6.7-1.5-11.5-4.6-14.4c-3.1-2.8-8.4-4.3-15.9-4.3c-4,0-8.4,0.5-13.2,1.4c-4.8,0.9-10.2,2.6-16,5.1
		c-3.5,1.4-6.6,1.7-9.1,0.9c-2.5-0.8-4.5-2.3-5.9-4.5c-1.4-2.2-2.1-4.7-2.1-7.5s0.8-5.4,2.3-7.8c1.5-2.5,4.1-4.3,7.8-5.5
		c7.1-2.8,13.8-4.7,20.1-5.9c6.4-1.2,12.2-1.7,17.4-1.7c11.8,0,21.6,1.7,29.3,5.2c7.7,3.4,13.5,8.8,17.2,16
		c3.8,7.2,5.6,16.3,5.6,27.4v51.1c0,5.7-1.4,10-4.3,13c-2.8,3-6.8,4.5-11.8,4.5c-5.2,0-9.2-1.5-12.1-4.5c-2.8-3-4.3-7.3-4.3-13v-8.5
		l1.6,1.6c-0.9,5.1-2.9,9.4-5.9,13.1s-6.7,6.6-11.3,8.6C589.7,211.3,584.5,212.4,578.5,212.4z"/>
	<path d="M711.4,212.4c-6.6,0-13.5-0.6-20.7-1.7c-7.2-1.1-13.6-3.2-19.3-6.1c-3.2-1.5-5.5-3.5-6.8-5.9c-1.3-2.4-1.9-4.8-1.7-7.4
		c0.2-2.5,1-4.8,2.4-6.7c1.5-1.9,3.4-3.2,5.8-3.9c2.4-0.7,5-0.4,7.9,0.8c6.3,2.6,12.1,4.4,17.4,5.5c5.3,1.1,10.4,1.6,15.3,1.6
		c6.4,0,11.2-1.1,14.3-3.2c3.1-2.1,4.6-4.9,4.6-8.3c0-2.9-1-5.1-3-6.6c-2-1.5-4.9-2.6-8.7-3.3l-24.4-4.4
		c-9.4-1.8-16.6-5.4-21.7-10.6c-5.1-5.2-7.7-12-7.7-20.2c0-7.8,2.1-14.5,6.4-20c4.3-5.5,10.2-9.8,17.8-12.8c7.6-3,16.2-4.5,25.9-4.5
		c6.9,0,13.2,0.6,19,1.8c5.8,1.2,11.4,3.3,16.9,6.2c2.8,1.2,4.7,3,5.9,5.3c1.1,2.3,1.5,4.7,1,7.1c-0.5,2.5-1.4,4.6-2.9,6.6
		c-1.5,1.9-3.4,3.2-5.8,3.9c-2.4,0.7-5.2,0.3-8.4-1c-4.9-2-9.4-3.5-13.6-4.5c-4.1-1-8-1.5-11.5-1.5c-7.1,0-12.2,1.1-15.3,3.2
		c-3.1,2.1-4.7,4.9-4.7,8.3c0,2.6,0.9,4.8,2.8,6.6c1.8,1.8,4.6,3,8.3,3.6l24.4,4.1c9.8,1.8,17.3,5.3,22.5,10.2
		c5.2,5,7.8,11.7,7.8,20.1c0,12-4.6,21.2-13.7,27.7C738.8,209.1,726.6,212.4,711.4,212.4z"/>
	<path d="M798.6,76.7c-6.3,0-11.1-1.5-14.5-4.6c-3.4-3.1-5.1-7.4-5.1-13.1c0-5.5,1.7-9.8,5.1-12.8c3.4-3,8.2-4.5,14.5-4.5
		c6.4,0,11.4,1.5,14.8,4.5c3.5,3,5.2,7.2,5.2,12.8c0,5.7-1.7,10-5.2,13.1C810,75.1,805.1,76.7,798.6,76.7z M798.6,211.9
		c-5.4,0-9.6-1.6-12.6-4.9c-3.1-3.3-4.6-7.9-4.6-13.9v-78.9c0-6.1,1.5-10.8,4.6-13.9c3.1-3.1,7.3-4.7,12.6-4.7c5.7,0,10,1.6,13,4.7
		c3,3.1,4.5,7.8,4.5,13.9V193c0,6-1.5,10.6-4.4,13.9C808.8,210.2,804.4,211.9,798.6,211.9z"/>
</g>
</svg>
