<?xml version="1.0" standalone="no"?>
<!DOCTYPE svg PUBLIC "-//W3C//DTD SVG 20010904//EN"
 "http://www.w3.org/TR/2001/REC-SVG-20010904/DTD/svg10.dtd">
<svg version="1.0" xmlns="http://www.w3.org/2000/svg"
 width="648.000000pt" height="648.000000pt" viewBox="0 0 648.000000 648.000000"
 preserveAspectRatio="xMidYMid meet">
<metadata>
Created by potrace 1.14, written by Peter Selinger 2001-2017
</metadata>
<g transform="translate(0.000000,648.000000) scale(0.100000,-0.100000)"
fill="#000000" stroke="none">
<path d="M1077 6024 c-1 -1 -18 -5 -37 -8 -226 -41 -423 -228 -473 -451 -45
-194 12 -416 141 -552 92 -97 155 -137 282 -179 52 -17 131 -18 1330 -20 701
-1 1297 -5 1325 -8 157 -18 272 -49 393 -106 123 -58 216 -124 312 -221 325
-325 446 -748 334 -1169 -121 -458 -463 -796 -894 -884 -126 -25 -192 -29
-560 -31 -195 -1 -375 -6 -400 -9 -102 -17 -224 -81 -301 -159 -295 -297 -224
-798 138 -981 110 -55 154 -60 558 -60 330 -1 531 6 590 18 11 2 47 7 80 11
33 3 78 10 100 15 22 5 51 11 65 13 14 3 45 10 70 17 25 7 56 14 69 16 44 9
246 87 349 136 88 41 282 152 316 179 6 5 39 29 73 54 82 59 122 93 238 205
267 258 503 635 625 1000 27 80 51 156 54 170 11 56 35 177 40 205 27 141 27
550 2 695 -3 14 -10 54 -16 90 -33 194 -121 483 -192 629 -40 82 -137 255
-183 326 -23 36 -163 217 -200 260 -146 167 -402 379 -575 473 -203 112 -337
170 -525 227 -161 49 -257 68 -465 91 -52 6 -2657 13 -2663 8z"/>
<path d="M1832 4323 c-4 -1 -74 -4 -157 -7 -168 -5 -184 -8 -305 -43 -277 -80
-537 -278 -666 -509 -71 -127 -121 -274 -141 -414 -10 -72 -10 -2475 0 -2520
17 -75 85 -195 145 -257 104 -107 226 -162 377 -168 106 -5 186 11 275 54 185
90 289 238 316 451 2 14 3 153 4 310 0 157 0 357 0 445 1 220 1 315 0 570 -1
528 0 533 61 660 57 120 146 207 272 265 36 17 86 34 109 38 24 4 194 6 378 5
184 -1 475 -3 645 -5 l310 -2 78 27 c146 51 256 142 321 267 123 234 79 495
-113 678 -51 49 -169 117 -221 127 -11 2 -24 6 -29 9 -22 14 -220 18 -909 20
-408 0 -745 0 -750 -1z"/>
</g>
</svg>
